<svg xmlns="http://www.w3.org/2000/svg" xmlns:xlink="http://www.w3.org/1999/xlink" version="1.1" x="0px" y="0px" viewBox="0 0 100 125" enable-background="new 0 0 100 100" xml:space="preserve"><path d="M70.770813,66.6657715c6.0948486-5.8361816,9.921814-14.1958008,9.921814-23.4697266  c0-17.5400391-13.4072266-37.9287109-30.6933594-37.9287109c-17.2851563,0-30.6923828,20.3886719-30.6923828,37.9287109  c0,9.2741089,3.8271484,17.6339111,9.9220581,23.4700928c-6.4096069,6.5281372-10.4547729,16.0168457-10.4547729,26.5665283  c0,0.828125,0.6713867,1.5,1.5,1.5h59.4516602c0.828125,0,1.5-0.671875,1.5-1.5  C81.2258301,82.6828003,77.180542,73.1939087,70.770813,66.6657715z M49.9992676,24.4870605  c10.3629761,0,19.2199097,5.795166,22.6361084,13.9067383l-0.0872803,1.0292969l-1.6162109-2.534668l-0.9169922,3.2011719  c-0.1434326,0.5011597-0.3097534,0.9945068-0.4926758,1.4814453c-0.5070801,1.3499146-1.161377,2.6425781-1.9594727,3.8554688  l-0.2617188,0.3974609l0.015625,0.4755859c0.0039063,0.1240234,0.0107422,0.2475586,0.0185547,0.3710938  c0.0078125,0.1313477,0.0166016,0.2631836,0.0166016,0.3969727c0,5.2442017-1.8845215,10.0009155-4.9287109,13.4932861  c-0.3443604,0.3951416-0.7067261,0.7689819-1.0799561,1.1303711c-0.3974609,0.3848877-0.8110962,0.7474365-1.2388916,1.0913696  c-2.8546753,2.2952881-6.3458252,3.6638794-10.1254883,3.6638794c-3.7731934,0-7.2589111-1.3635254-10.1107788-3.6513672  c-0.4284058-0.343689-0.8426514-0.7059326-1.2407227-1.0906372c-0.373291-0.3606567-0.7358398-0.7337036-1.0803223-1.1280518  c-3.0518799-3.4937134-4.9412231-8.2570801-4.9412231-13.5088501c0-0.1352539,0.0087891-0.2680664,0.0170898-0.4013672  l0.034668-0.8417969l-0.2626953-0.3989258c-0.7944336-1.2053833-1.4454346-2.4896851-1.951355-3.8308105  c-0.1865845-0.4946289-0.3566284-0.9956055-0.5022583-1.505127l-0.9165039-3.2041016l-1.5751953,2.4716797l-0.0738525-0.9892578  C30.7996826,30.2699585,39.6478271,24.4870605,49.9992676,24.4870605z M64.3206177,62.944458  c0.2632446-0.2869873,0.5197754-0.5814209,0.7686157-0.883667c3.2686157-3.9710083,5.2625732-9.2307739,5.2625732-14.9931641  c0-0.1386719-0.0058594-0.2758789-0.0126953-0.4130859c0.5615234-0.8955078,1.0576172-1.8261719,1.4853516-2.7866211  l2.2426147,3.5161743c-0.4992676,5.963623-3.78302,11.2539063-8.7134399,14.8502808  C65.017395,62.4796753,64.671814,62.71521,64.3206177,62.944458z M28.1320801,43.8693848  c0.4282227,0.9599609,0.9243164,1.8901367,1.4863281,2.7851563c-0.0073242,0.137207-0.0126953,0.2744141-0.0126953,0.4130859  c0,5.7711792,1.9995117,11.0385742,5.2769775,15.0116577c0.2250366,0.2727661,0.4556885,0.539917,0.6925049,0.800293  c-0.3157959-0.208374-0.6256104-0.4233398-0.9291992-0.6448364c-4.9457397-3.6074829-8.2348633-8.9196167-8.7183838-14.9059448  L28.1320801,43.8693848z M49.9992676,75.1096191c0.0261841,0,0.0519409-0.0020142,0.078125-0.0020752  c1.5904541,0.0421143,2.8688354,1.3378906,2.8688354,2.9385376c0,1.6272583-1.3191528,2.9463501-2.9464111,2.9463501  c-1.6271973,0-2.9463501-1.3190918-2.9463501-2.9463501c0-1.6005859,1.2781982-2.8963013,2.8685303-2.9384766  C49.947876,75.107666,49.9733276,75.1096191,49.9992676,75.1096191z M49.9998169,85.1494751  c1.6272583,0,2.9464111,1.3191528,2.9464111,2.9463501c0,1.6272583-1.3191528,2.9464111-2.9464111,2.9464111  c-1.6271973,0-2.9463501-1.3191528-2.9463501-2.9464111C47.0534668,86.4686279,48.3726196,85.1494751,49.9998169,85.1494751z   M43.7994385,55.3313599c0-2.0884399,2.776001-3.7814331,6.2003784-3.7814331c3.4244385,0,6.2004395,1.6929932,6.2004395,3.7814331  c0,1.0303955-0.6777344,1.9634399-1.7738037,2.6454468c-0.7329712,0.4561768-1.6536865,0.7981567-2.6861572,0.9821167  c0.0384521,0.0797119,0.0830078,0.1517334,0.1253662,0.2276001c0.2398071,0.4293823,0.536438,0.7948608,0.9129028,0.967041  c0.6732178,0.3084717,1.5765381-0.0565186,2.3465576-0.5249634c0.1782837-0.1084595,0.3516846-0.2207031,0.5108643-0.3334351  c0.5380859-0.3808594,1.2880859-0.2558594,1.6728516,0.2861328c0.1363525,0.192688,0.1861572,0.4115601,0.1973267,0.6309814  c0.0202026,0.3966064-0.1351318,0.7947998-0.4834595,1.0418701c-0.1427612,0.1011353-0.2797852,0.1752319-0.4202271,0.265564  c-1.1713257,0.7531738-2.267334,1.1524048-3.2692261,1.1524048c-0.546875,0-1.0673828-0.1132813-1.5595703-0.3388672  c-0.7658691-0.3521118-1.3393555-0.9361572-1.7739258-1.5927734c-0.4345093,0.6566162-1.0080566,1.2406616-1.7739258,1.5927734  c-0.4916992,0.2255859-1.012207,0.3388672-1.5595703,0.3388672c-1.0014038,0-2.0977173-0.399292-3.2689209-1.1522827  c-0.140564-0.0903931-0.27771-0.1644897-0.4205322-0.265686c-0.3479004-0.2470093-0.5031128-0.6455688-0.4828491-1.0420532  c0.0112305-0.2195435,0.0610962-0.4383545,0.1976929-0.6307983c0.3833008-0.5400391,1.1313477-0.6669922,1.6728516-0.2861328  c0.1589355,0.112793,0.3321533,0.2250366,0.5103149,0.333374c0.7703857,0.468689,1.6752319,0.8327637,2.3466187,0.5250244  c0.3763428-0.1721191,0.6729126-0.5375977,0.9125977-0.967041c0.0423584-0.0758667,0.0869141-0.1478882,0.1253662-0.2276001  c-1.0323486-0.184021-1.953064-0.5258789-2.6860352-0.9819946C44.4772339,57.2948608,43.7994385,56.3618164,43.7994385,55.3313599z   M38.8543091,38.791748c0-0.447998,0.1179199-0.864502,0.3086548-1.237793  c0.453064-0.8864136,1.3648682-1.4996338,2.4287109-1.4996338c0.6216431,0,1.1882324,0.2151489,1.6477661,0.5643311  c0.6580811,0.499939,1.0895996,1.2828979,1.0895996,2.1730957c0,1.5117798-1.2255859,2.7373657-2.7373657,2.7373657  S38.8543091,40.3035278,38.8543091,38.791748z M55.6706543,38.791748c0-0.8901978,0.4314575-1.6731567,1.0895386-2.1730957  c0.4595337-0.3491821,1.0261841-0.5643311,1.6478271-0.5643311c1.0638428,0,1.975647,0.6132202,2.4287109,1.4996338  c0.1907349,0.373291,0.3086548,0.7897949,0.3086548,1.237793c0,1.5117798-1.2255859,2.7373657-2.7373657,2.7373657  C56.8961792,41.5291138,55.6706543,40.3035278,55.6706543,38.791748z"/><!-- <text x="0" y="115" fill="#000000" font-size="5px" font-weight="bold" font-family="'Helvetica Neue', Helvetica, Arial-Unicode, Arial, Sans-serif">Created by Llisole</text><text x="0" y="120" fill="#000000" font-size="5px" font-weight="bold" font-family="'Helvetica Neue', Helvetica, Arial-Unicode, Arial, Sans-serif">from the Noun Project</text> --></svg>